<svg width="27" height="29" viewBox="0 0 27 29" fill="none" xmlns="http://www.w3.org/2000/svg">
<path d="M9.39927 26.5956V22.2638C9.39927 21.158 10.3022 20.2616 11.4161 20.2616H15.4879C16.0228 20.2616 16.5358 20.4725 16.914 20.848C17.2922 21.2235 17.5047 21.7328 17.5047 22.2638V26.5956C17.5013 27.0553 17.6829 27.4973 18.0092 27.8236C18.3355 28.1498 18.7794 28.3333 19.2425 28.3333H22.0204C23.3178 28.3367 24.5632 27.8274 25.4818 26.9178C26.4004 26.0083 26.9167 24.7732 26.9167 23.4853V11.1447C26.9166 10.1043 26.4521 9.11744 25.6482 8.44995L16.1982 0.957481C14.5544 -0.356204 12.1991 -0.313789 10.6043 1.05822L1.36993 8.44995C0.528049 9.09777 0.0248657 10.0876 0 11.1447V23.4727C0 26.1571 2.19212 28.3333 4.89625 28.3333H7.61074C8.57257 28.3333 9.35425 27.563 9.36122 26.6082L9.39927 26.5956Z" fill="#5A4FCF"/>
</svg>
